<svg height="16pt" viewBox="0 0 102 111" width="16pt" xmlns="http://www.w3.org/2000/svg">
    <path d="M50.21 18.592c22.534 0 40.868 18.384 40.868 40.984 0 22.597-18.335 40.982-40.868 40.982-22.534 0-40.868-18.384-40.868-40.982 0-22.599 18.335-40.984 40.868-40.984m-2.512 36.622a5.053 5.053 0 0 0-2.514 4.362c0 2.789 2.247 5.04 5.02 5.04 2.777 0 5.02-2.249 5.03-5.03a5.04 5.04 0 0 0-2.512-4.362V36.48h-5.03v18.74M44.34 9.87c-10.124 1.188-19.323 5.415-26.665 11.747l-5.465-5.481-5.33 5.347 5.464 5.48A49.94 49.94 0 0 0 .294 59.584c0 27.644 22.347 50.05 49.913 50.05 27.566 0 49.915-22.41 49.915-50.05 0-25.657-19.248-46.803-44.05-49.714V.78H44.344v9.09"></path>
</svg>